<svg width="145" height="32" viewBox="0 0 145 32" fill="none" xmlns="http://www.w3.org/2000/svg">
<path d="M12 0H0V32H12V26.9992H5.0008V5.0008H12V0Z" fill="#0090FF"/>
<path d="M20 32V26.9992H26.9992V5.0008H20V0H32V32H20Z" fill="#0090FF"/>
<path d="M50.8036 13.7156C49.523 13.7156 48.3622 13.4396 47.321 12.8876C46.2918 12.3236 45.478 11.5496 44.8796 10.5656C44.2932 9.56959 44 8.44759 44 7.19959C44 5.95159 44.2932 4.83559 44.8796 3.85159C45.478 2.85559 46.2918 2.08159 47.321 1.52959C48.3622 0.965594 49.529 0.683594 50.8215 0.683594C51.9106 0.683594 52.8919 0.875594 53.7655 1.25959C54.6511 1.64359 55.3931 2.19559 55.9915 2.91559L54.1246 4.64359C53.2749 3.65959 52.2217 3.16759 50.9651 3.16759C50.1872 3.16759 49.4931 3.34159 48.8828 3.68959C48.2724 4.02559 47.7937 4.49959 47.4467 5.11159C47.1116 5.72359 46.944 6.41959 46.944 7.19959C46.944 7.97959 47.1116 8.67559 47.4467 9.28759C47.7937 9.89959 48.2724 10.3796 48.8828 10.7276C49.4931 11.0636 50.1872 11.2316 50.9651 11.2316C52.2217 11.2316 53.2749 10.7336 54.1246 9.73759L55.9915 11.4656C55.3931 12.1976 54.6511 12.7556 53.7655 13.1396C52.8799 13.5236 51.8926 13.7156 50.8036 13.7156Z" fill="#282828"/>
<path d="M66.7191 3.81641V13.5004H64.0623V12.3484C63.6913 12.7684 63.2485 13.0924 62.7339 13.3204C62.2193 13.5364 61.6628 13.6444 61.0644 13.6444C59.7959 13.6444 58.7906 13.2784 58.0486 12.5464C57.3066 11.8144 56.9356 10.7284 56.9356 9.28841V3.81641H59.736V8.87441C59.736 10.4344 60.3883 11.2144 61.6927 11.2144C62.3629 11.2144 62.9015 10.9984 63.3084 10.5664C63.7153 10.1224 63.9187 9.46841 63.9187 8.60441V3.81641H66.7191Z" fill="#282828"/>
<path d="M72.2015 13.6439C71.3997 13.6439 70.6158 13.5479 69.8499 13.3559C69.084 13.1519 68.4736 12.8999 68.0189 12.5999L68.9523 10.5839C69.3832 10.8599 69.9038 11.0879 70.5141 11.2679C71.1245 11.4359 71.7228 11.5199 72.3092 11.5199C73.494 11.5199 74.0864 11.2259 74.0864 10.6379C74.0864 10.3619 73.9249 10.1639 73.6017 10.0439C73.2786 9.92387 72.782 9.82187 72.1118 9.73787C71.3219 9.61788 70.6697 9.47987 70.1551 9.32387C69.6405 9.16787 69.1917 8.89187 68.8087 8.49587C68.4377 8.09987 68.2522 7.53587 68.2522 6.80387C68.2522 6.19187 68.4258 5.65188 68.7728 5.18388C69.1319 4.70387 69.6465 4.33187 70.3166 4.06787C70.9988 3.80387 71.8006 3.67188 72.7221 3.67188C73.4043 3.67188 74.0804 3.74987 74.7506 3.90587C75.4328 4.04987 75.9952 4.25387 76.438 4.51787L75.5046 6.51587C74.6549 6.03587 73.7274 5.79587 72.7221 5.79587C72.1237 5.79587 71.675 5.87987 71.3758 6.04787C71.0766 6.21587 70.927 6.43187 70.927 6.69587C70.927 6.99587 71.0885 7.20587 71.4117 7.32587C71.7348 7.44587 72.2494 7.55988 72.9555 7.66788C73.7453 7.79988 74.3916 7.94387 74.8942 8.09987C75.3969 8.24387 75.8337 8.51388 76.2047 8.90987C76.5757 9.30587 76.7612 9.85787 76.7612 10.5659C76.7612 11.1659 76.5817 11.6999 76.2226 12.1679C75.8636 12.6359 75.337 13.0019 74.6429 13.2659C73.9608 13.5179 73.147 13.6439 72.2015 13.6439Z" fill="#282828"/>
<path d="M83.9106 13.0318C83.6354 13.2358 83.2943 13.3918 82.8874 13.4998C82.4925 13.5958 82.0796 13.6438 81.6487 13.6438C80.4879 13.6438 79.5963 13.3498 78.974 12.7618C78.3517 12.1738 78.0405 11.3098 78.0405 10.1698V1.67383H80.8409V4.03183H83.2285V6.19183H80.8409V10.1338C80.8409 10.5418 80.9427 10.8598 81.1461 11.0878C81.3496 11.3038 81.6428 11.4118 82.0257 11.4118C82.4566 11.4118 82.8395 11.2918 83.1746 11.0518L83.9106 13.0318Z" fill="#282828"/>
<path d="M89.5522 13.6439C88.5349 13.6439 87.6194 13.4339 86.8056 13.0139C86.0038 12.5819 85.3755 11.9879 84.9207 11.2319C84.466 10.4759 84.2386 9.61788 84.2386 8.65788C84.2386 7.69788 84.466 6.83988 84.9207 6.08387C85.3755 5.32787 86.0038 4.73987 86.8056 4.31987C87.6194 3.88787 88.5349 3.67188 89.5522 3.67188C90.5694 3.67188 91.4789 3.88787 92.2808 4.31987C93.0826 4.73987 93.7109 5.32787 94.1657 6.08387C94.6204 6.83988 94.8478 7.69788 94.8478 8.65788C94.8478 9.61788 94.6204 10.4759 94.1657 11.2319C93.7109 11.9879 93.0826 12.5819 92.2808 13.0139C91.4789 13.4339 90.5694 13.6439 89.5522 13.6439ZM89.5522 11.3399C90.2702 11.3399 90.8566 11.0999 91.3114 10.6199C91.7781 10.1279 92.0115 9.47388 92.0115 8.65788C92.0115 7.84188 91.7781 7.19387 91.3114 6.71387C90.8566 6.22187 90.2702 5.97587 89.5522 5.97587C88.8341 5.97587 88.2417 6.22187 87.775 6.71387C87.3082 7.19387 87.0749 7.84188 87.0749 8.65788C87.0749 9.47388 87.3082 10.1279 87.775 10.6199C88.2417 11.0999 88.8341 11.3399 89.5522 11.3399Z" fill="#282828"/>
<path d="M108.602 3.67188C109.811 3.67188 110.768 4.03187 111.474 4.75187C112.192 5.45987 112.551 6.52787 112.551 7.95587V13.4999H109.751V8.38787C109.751 7.61987 109.589 7.04987 109.266 6.67787C108.955 6.29387 108.506 6.10187 107.92 6.10187C107.262 6.10187 106.741 6.31787 106.358 6.74987C105.975 7.16987 105.784 7.79987 105.784 8.63987V13.4999H102.983V8.38787C102.983 6.86387 102.373 6.10187 101.152 6.10187C100.506 6.10187 99.9912 6.31787 99.6082 6.74987C99.2253 7.16987 99.0338 7.79987 99.0338 8.63987V13.4999H96.2334V3.81587H98.9081V4.93187C99.2672 4.52387 99.704 4.21187 100.219 3.99588C100.745 3.77988 101.32 3.67188 101.942 3.67188C102.624 3.67188 103.24 3.80988 103.791 4.08588C104.341 4.34987 104.784 4.73987 105.119 5.25587C105.514 4.75187 106.011 4.36188 106.609 4.08588C107.22 3.80988 107.884 3.67188 108.602 3.67188Z" fill="#282828"/>
<path d="M124.022 8.69387C124.022 8.72987 124.004 8.98188 123.968 9.44987H116.662C116.794 10.0499 117.105 10.5239 117.596 10.8719C118.086 11.2199 118.697 11.3939 119.427 11.3939C119.929 11.3939 120.372 11.3219 120.755 11.1779C121.15 11.0219 121.515 10.7819 121.85 10.4579L123.34 12.0779C122.431 13.1219 121.102 13.6439 119.355 13.6439C118.266 13.6439 117.302 13.4339 116.465 13.0139C115.627 12.5819 114.981 11.9879 114.526 11.2319C114.071 10.4759 113.844 9.61788 113.844 8.65788C113.844 7.70988 114.065 6.85787 114.508 6.10187C114.963 5.33387 115.579 4.73987 116.357 4.31987C117.147 3.88787 118.027 3.67188 118.996 3.67188C119.941 3.67188 120.797 3.87587 121.563 4.28387C122.329 4.69187 122.927 5.27987 123.358 6.04787C123.801 6.80387 124.022 7.68587 124.022 8.69387ZM119.014 5.79587C118.38 5.79587 117.847 5.97587 117.416 6.33587C116.985 6.69587 116.722 7.18787 116.626 7.81187H121.383C121.288 7.19987 121.024 6.71387 120.594 6.35387C120.163 5.98187 119.636 5.79587 119.014 5.79587Z" fill="#282828"/>
<path d="M128.062 5.09387C128.397 4.62587 128.845 4.27187 129.408 4.03187C129.982 3.79187 130.641 3.67188 131.383 3.67188V6.26388C131.071 6.23987 130.862 6.22787 130.754 6.22787C129.952 6.22787 129.324 6.45587 128.869 6.91187C128.415 7.35588 128.187 8.02787 128.187 8.92787V13.4999H125.387V3.81587H128.062V5.09387Z" fill="#282828"/>
<path d="M134.218 0C134.721 0 135.134 0.162 135.457 0.486C135.78 0.798 135.942 1.212 135.942 1.728C135.942 1.968 135.912 2.208 135.852 2.448C135.792 2.688 135.666 3.048 135.475 3.528L134.434 6.12H132.656L133.428 3.276C133.129 3.144 132.896 2.946 132.728 2.682C132.561 2.418 132.477 2.1 132.477 1.728C132.477 1.212 132.638 0.798 132.962 0.486C133.297 0.162 133.716 0 134.218 0Z" fill="#282828"/>
<path d="M140.44 13.6439C139.639 13.6439 138.855 13.5479 138.089 13.3559C137.323 13.1519 136.712 12.8999 136.258 12.5999L137.191 10.5839C137.622 10.8599 138.143 11.0879 138.753 11.2679C139.363 11.4359 139.962 11.5199 140.548 11.5199C141.733 11.5199 142.325 11.2259 142.325 10.6379C142.325 10.3619 142.164 10.1639 141.841 10.0439C141.517 9.92387 141.021 9.82187 140.351 9.73787C139.561 9.61788 138.909 9.47987 138.394 9.32387C137.879 9.16787 137.431 8.89187 137.048 8.49587C136.677 8.09987 136.491 7.53587 136.491 6.80387C136.491 6.19187 136.665 5.65188 137.012 5.18388C137.371 4.70387 137.885 4.33187 138.555 4.06787C139.238 3.80387 140.039 3.67188 140.961 3.67188C141.643 3.67188 142.319 3.74987 142.989 3.90587C143.672 4.04987 144.234 4.25387 144.677 4.51787L143.743 6.51587C142.894 6.03587 141.966 5.79587 140.961 5.79587C140.363 5.79587 139.914 5.87987 139.615 6.04787C139.315 6.21587 139.166 6.43187 139.166 6.69587C139.166 6.99587 139.327 7.20587 139.651 7.32587C139.974 7.44587 140.488 7.55988 141.194 7.66788C141.984 7.79988 142.63 7.94387 143.133 8.09987C143.636 8.24387 144.073 8.51388 144.444 8.90987C144.815 9.30587 145 9.85787 145 10.5659C145 11.1659 144.82 11.6999 144.461 12.1679C144.102 12.6359 143.576 13.0019 142.882 13.2659C142.2 13.5179 141.386 13.6439 140.44 13.6439Z" fill="#282828"/>
<path d="M47.321 31.172C48.3622 31.724 49.523 32 50.8036 32C51.8926 32 52.8799 31.808 53.7655 31.424C54.6511 31.04 55.3931 30.482 55.9915 29.75L54.1246 28.022C53.2749 29.018 52.2217 29.516 50.9651 29.516C50.1872 29.516 49.4931 29.348 48.8828 29.012C48.2724 28.664 47.7937 28.184 47.4467 27.572C47.1116 26.96 46.944 26.264 46.944 25.484C46.944 24.704 47.1116 24.008 47.4467 23.396C47.7937 22.784 48.2724 22.31 48.8828 21.974C49.4931 21.626 50.1872 21.452 50.9651 21.452C52.2217 21.452 53.2749 21.944 54.1246 22.928L55.9915 21.2C55.3931 20.48 54.6511 19.928 53.7655 19.544C52.8919 19.16 51.9106 18.968 50.8215 18.968C49.529 18.968 48.3622 19.25 47.321 19.814C46.2918 20.366 45.478 21.14 44.8796 22.136C44.2932 23.12 44 24.236 44 25.484C44 26.732 44.2932 27.854 44.8796 28.85C45.478 29.834 46.2918 30.608 47.321 31.172Z" fill="#282828"/>
<path fill-rule="evenodd" clip-rule="evenodd" d="M67.05 31.7843V22.1003H64.2496V23.1263C63.5554 22.3463 62.5921 21.9563 61.3594 21.9563C60.4499 21.9563 59.6241 22.1603 58.8821 22.5683C58.1521 22.9763 57.5776 23.5583 57.1588 24.3143C56.7399 25.0703 56.5305 25.9463 56.5305 26.9423C56.5305 27.9383 56.7399 28.8143 57.1588 29.5703C57.5776 30.3263 58.1521 30.9083 58.8821 31.3163C59.6241 31.7243 60.4499 31.9283 61.3594 31.9283C62.6758 31.9283 63.6811 31.5083 64.3752 30.6683V31.7843H67.05ZM63.6033 28.9043C63.1366 29.3843 62.5502 29.6243 61.8441 29.6243C61.126 29.6243 60.5336 29.3843 60.0669 28.9043C59.6002 28.4123 59.3668 27.7583 59.3668 26.9423C59.3668 26.1263 59.6002 25.4783 60.0669 24.9983C60.5336 24.5063 61.126 24.2603 61.8441 24.2603C62.5502 24.2603 63.1366 24.5063 63.6033 24.9983C64.07 25.4783 64.3034 26.1263 64.3034 26.9423C64.3034 27.7583 64.07 28.4123 63.6033 28.9043Z" fill="#282828"/>
<path d="M75.0129 21.9563C76.2096 21.9563 77.173 22.3163 77.903 23.0363C78.645 23.7563 79.016 24.8243 79.016 26.2403V31.7843H76.2156V26.6723C76.2156 25.9043 76.0481 25.3343 75.713 24.9623C75.3779 24.5783 74.8932 24.3863 74.2589 24.3863C73.5528 24.3863 72.9903 24.6083 72.5715 25.0523C72.1526 25.4843 71.9432 26.1323 71.9432 26.9963V31.7843H69.1428V22.1003H71.8175V23.2343C72.1885 22.8263 72.6493 22.5143 73.1998 22.2983C73.7503 22.0703 74.3546 21.9563 75.0129 21.9563Z" fill="#282828"/>
<path d="M86.2226 31.7848L90.2976 22.1008H87.6049L84.8404 28.6888L82.1656 22.1008H79.2755L83.3325 31.7848H86.2226Z" fill="#282828"/>
<path fill-rule="evenodd" clip-rule="evenodd" d="M100.586 22.1003V31.7843H97.9113V30.6683C97.2171 31.5083 96.2119 31.9283 94.8954 31.9283C93.9859 31.9283 93.1601 31.7243 92.4181 31.3163C91.6881 30.9083 91.1137 30.3263 90.6948 29.5703C90.276 28.8143 90.0665 27.9383 90.0665 26.9423C90.0665 25.9463 90.276 25.0703 90.6948 24.3143C91.1137 23.5583 91.6881 22.9763 92.4181 22.5683C93.1601 22.1603 93.9859 21.9563 94.8954 21.9563C96.1281 21.9563 97.0915 22.3463 97.7856 23.1263V22.1003H100.586ZM95.3801 29.6243C96.0862 29.6243 96.6726 29.3843 97.1393 28.9043C97.6061 28.4123 97.8394 27.7583 97.8394 26.9423C97.8394 26.1263 97.6061 25.4783 97.1393 24.9983C96.6726 24.5063 96.0862 24.2603 95.3801 24.2603C94.6621 24.2603 94.0697 24.5063 93.6029 24.9983C93.1362 25.4783 92.9028 26.1263 92.9028 26.9423C92.9028 27.7583 93.1362 28.4123 93.6029 28.9043C94.0697 29.3843 94.6621 29.6243 95.3801 29.6243Z" fill="#282828"/>
<path d="M103.754 31.6403C104.52 31.8323 105.304 31.9283 106.106 31.9283C107.051 31.9283 107.865 31.8023 108.547 31.5503C109.241 31.2863 109.768 30.9203 110.127 30.4523C110.486 29.9843 110.665 29.4503 110.665 28.8503C110.665 28.1423 110.48 27.5903 110.109 27.1943C109.738 26.7983 109.301 26.5283 108.798 26.3843C108.296 26.2283 107.65 26.0843 106.86 25.9523C106.154 25.8443 105.639 25.7303 105.316 25.6103C104.993 25.4903 104.831 25.2803 104.831 24.9803C104.831 24.7163 104.981 24.5003 105.28 24.3323C105.579 24.1643 106.028 24.0803 106.626 24.0803C107.632 24.0803 108.559 24.3203 109.409 24.8003L110.342 22.8023C109.899 22.5383 109.337 22.3343 108.655 22.1903C107.985 22.0343 107.308 21.9563 106.626 21.9563C105.705 21.9563 104.903 22.0883 104.221 22.3523C103.551 22.6163 103.036 22.9883 102.677 23.4683C102.33 23.9363 102.156 24.4763 102.156 25.0883C102.156 25.8203 102.342 26.3843 102.713 26.7803C103.096 27.1763 103.545 27.4523 104.059 27.6083C104.574 27.7643 105.226 27.9023 106.016 28.0223C106.686 28.1063 107.183 28.2083 107.506 28.3283C107.829 28.4483 107.991 28.6463 107.991 28.9223C107.991 29.5103 107.398 29.8043 106.213 29.8043C105.627 29.8043 105.029 29.7203 104.418 29.5523C103.808 29.3723 103.287 29.1443 102.857 28.8683L101.923 30.8843C102.378 31.1843 102.988 31.4363 103.754 31.6403Z" fill="#282828"/>
</svg>
