<svg width="28" height="20" viewBox="0 0 28 20" fill="none" xmlns="http://www.w3.org/2000/svg">
<path d="M6.08224 6.03124C6.08224 7.0534 5.21566 7.92675 4.09934 7.92675C2.98303 7.92675 2.11645 7.0534 2.11645 6.03124C2.11645 5.00908 2.98303 4.13574 4.09934 4.13574C5.21566 4.13574 6.08224 5.00908 6.08224 6.03124ZM25.2125 6.03124C25.2125 7.0534 24.3459 7.92675 23.2296 7.92675C22.1133 7.92675 21.2467 7.0534 21.2467 6.03124C21.2467 5.00908 22.1133 4.13574 23.2296 4.13574C24.3459 4.13574 25.2125 5.00908 25.2125 6.03124ZM23.7666 14.5405C23.4098 13.0412 22.5478 11.7436 21.3666 10.8093C21.5249 10.7703 21.6912 10.7495 21.8632 10.7495H24.5961C25.7124 10.7495 26.579 11.6228 26.579 12.645V13.9678C26.579 14.2624 26.3273 14.5405 25.9625 14.5405H23.7666ZM17.697 5.36987C17.697 7.49156 15.9167 9.2495 13.6645 9.2495C11.4123 9.2495 9.63191 7.49156 9.63191 5.36987C9.63191 3.24817 11.4123 1.49023 13.6645 1.49023C15.9167 1.49023 17.697 3.24817 17.697 5.36987ZM13.6645 12.7336C14.7736 12.7336 15.8139 12.4852 16.7514 12.0722H16.944C19.2687 12.0722 21.1132 13.8922 21.1132 16.0842V17.2746C21.1132 17.933 20.554 18.5088 19.8135 18.5088H7.51546C6.77492 18.5088 6.21579 17.933 6.21579 17.2746V16.0842C6.21579 13.8922 8.06024 12.0722 10.385 12.0722H10.5782C11.5179 12.4848 12.5544 12.7336 13.6645 12.7336ZM5.46579 10.7495C5.63773 10.7495 5.80401 10.7703 5.96233 10.8093C4.78079 11.7438 3.91846 13.0415 3.55921 14.5405H1.36645C1.00168 14.5405 0.75 14.2624 0.75 13.9678V12.645C0.75 11.6228 1.61658 10.7495 2.7329 10.7495H5.46579Z" stroke="#666666" stroke-width="1.5"/>
</svg>
